<svg xmlns="http://www.w3.org/2000/svg" width="120" height="120" viewBox="0 0 24 24">
  <defs>
    <linearGradient id="robotGradient" x1="0%" y1="0%" x2="100%" y2="100%">
      <stop offset="0%" style="stop-color:#CC3534"/>
      <stop offset="100%" style="stop-color:#8B0000"/>
    </linearGradient>
    <filter id="glow">
      <feGaussianBlur stdDeviation="0.5" result="coloredBlur"/>
      <feMerge>
        <feMergeNode in="coloredBlur"/>
        <feMergeNode in="SourceGraphic"/>
      </feMerge>
    </filter>
  </defs>
  <path fill="url(#robotGradient)" filter="url(#glow)" d="M22 14h-1c0-3.87-3.13-7-7-7h-1V5.73A2 2 0 1 0 10 4c0 .74.4 1.39 1 1.73V7h-1c-3.87 0-7 3.13-7 7H2c-.55 0-1 .45-1 1v3c0 .55.45 1 1 1h1v1a2 2 0 0 0 2 2h14c1.11 0 2-.89 2-2v-1h1c.55 0 1-.45 1-1v-3c0-.55-.45-1-1-1M7.5 18A2.5 2.5 0 0 1 5 15.5c0-.82.4-1.54 1-2l3.83 2.88C9.5 17.32 8.57 18 7.5 18m9 0c-1.07 0-2-.68-2.33-1.62L18 13.5c.6.46 1 1.18 1 2a2.5 2.5 0 0 1-2.5 2.5"/>
</svg>
